<?xml version="1.0" encoding="UTF-8"?>
<svg version="1.1" xmlns="http://www.w3.org/2000/svg" width="500" height="500">
<path d="M0 0 C165 0 330 0 500 0 C500 165 500 330 500 500 C335 500 170 500 0 500 C0 335 0 170 0 0 Z " fill="#FEFEFE" transform="translate(0,0)"/>
<path d="M0 0 C0.74523926 0.1232666 1.49047852 0.2465332 2.25830078 0.37353516 C33.70712565 5.86366654 63.19539095 23.07815001 86 45 C86.46857422 45.44279297 86.93714844 45.88558594 87.41992188 46.34179688 C98.93131556 57.25441846 108.12291991 69.18492946 116 83 C116.54720703 83.95084473 116.54720703 83.95084473 117.10546875 84.92089844 C135.3346105 116.91521975 145.27001739 157.65290857 136 194 C135.69255859 195.33611328 135.69255859 195.33611328 135.37890625 196.69921875 C130.84378359 215.09322556 122.44656848 232.15287772 114 249 C113.60022949 249.80211914 113.20045898 250.60423828 112.78857422 251.43066406 C91.59984368 293.65831529 61.65591501 332.43274887 32 369 C31.3090625 369.85335938 30.618125 370.70671875 29.90625 371.5859375 C25.36445025 377.16723367 20.74934595 382.68093802 16.08666992 388.16113281 C13.17470858 391.589839 10.32262002 395.05942694 7.5 398.5625 C3.37309794 403.63607493 -1.00102558 408.43741142 -5.4453125 413.23046875 C-7.50113722 415.45918393 -9.51616957 417.70767919 -11.5 420 C-14.45721739 423.41327019 -17.50259126 426.74151038 -20.5625 430.0625 C-24.46725453 434.3009999 -28.29072963 438.58897577 -32 443 C-39.86850241 439.70789094 -45.78592776 431.4133713 -51.23046875 425.05078125 C-53.23786023 422.72433417 -55.30466638 420.45807314 -57.375 418.1875 C-61.32371445 413.81714316 -65.0462721 409.29696921 -68.75 404.71875 C-70.93501569 402.07852271 -73.19171391 399.5327028 -75.5 397 C-79.29163754 392.82985132 -82.88985177 388.54207025 -86.43359375 384.16015625 C-88.34423039 381.79762313 -90.27844765 379.45607521 -92.22265625 377.12109375 C-99.81059377 367.99765454 -107.16199332 358.73272442 -114.30078125 349.25390625 C-116.07999863 346.89388687 -117.86789397 344.54060004 -119.65625 342.1875 C-128.39375583 330.65535222 -136.81803498 318.93246223 -145 307 C-145.45181641 306.34225586 -145.90363281 305.68451172 -146.36914062 305.00683594 C-165.78365168 276.6306343 -183.63523923 246.7662391 -195.875 214.5625 C-196.24471924 213.59175537 -196.61443848 212.62101074 -196.99536133 211.62084961 C-210.6966673 174.53985489 -206.52821724 133.0461321 -190.19042969 97.38623047 C-182.12063401 80.55943958 -171.8766292 65.52812532 -159 52 C-158.46632812 51.4337793 -157.93265625 50.86755859 -157.3828125 50.28417969 C-116.36515132 7.01054714 -58.21175479 -9.8569425 0 0 Z " fill="#013466" transform="translate(271,32)"/>
<path d="M0 0 C3.44401787 1.62084653 5.60671518 3.42536245 8.25 6.1875 C13.95052993 12.12728575 20.01341051 17.34388151 26.68164062 22.17163086 C33.89920068 27.4435103 40.78672605 33.03681942 47.5 38.9375 C48.40974831 39.73633858 48.40974831 39.73633858 49.33787537 40.55131531 C65.23394862 54.7292376 74.7805472 68.31727041 76.2699585 89.99193001 C77.41024675 112.71716431 75.36946913 135.41916175 73 158 C57.82 158 42.64 158 27 158 C26.95101562 153.61976563 26.90203125 149.23953125 26.8515625 144.7265625 C26.80704217 141.23939277 26.76054555 137.7522619 26.71270752 134.26513672 C26.66271209 130.58109225 26.61622004 126.897079 26.578125 123.21289062 C26.54131654 119.66606297 26.49496933 116.11947779 26.44193649 112.5728569 C26.42336878 111.2180849 26.40826962 109.86326087 26.39665604 108.50841141 C26.37983491 106.61439144 26.34966384 104.72050412 26.31884766 102.82666016 C26.30552399 101.74744293 26.29220032 100.66822571 26.2784729 99.55630493 C26.25199493 96.8344136 26.25199493 96.8344136 24 95 C21.94666093 94.70150785 21.94666093 94.70150785 19.56616211 94.75708008 C18.64858627 94.75400345 17.73101044 94.75092682 16.78562927 94.74775696 C15.79289505 94.75494247 14.80016083 94.76212799 13.77734375 94.76953125 C12.253619 94.77021858 12.253619 94.77021858 10.69911194 94.7709198 C8.54964023 94.77394404 6.40017075 94.78183544 4.25073242 94.79418945 C0.94767558 94.81244376 -2.35510112 94.8146992 -5.65820312 94.81445312 C-7.74218994 94.81936821 -9.82617485 94.82519649 -11.91015625 94.83203125 C-13.40229393 94.83370049 -13.40229393 94.83370049 -14.92457581 94.83540344 C-15.83899948 94.84178329 -16.75342316 94.84816315 -17.69555664 94.85473633 C-18.9089547 94.86045403 -18.9089547 94.86045403 -20.14686584 94.86628723 C-22.01612934 94.79800125 -22.01612934 94.79800125 -23 96 C-23.12357078 97.93223995 -23.17794458 99.86893799 -23.20532227 101.80493164 C-23.22526749 103.04614273 -23.24521271 104.28735382 -23.26576233 105.56617737 C-23.28274793 106.9308357 -23.29962669 108.29549537 -23.31640625 109.66015625 C-23.33696936 111.04878875 -23.35796566 112.4374149 -23.37937927 113.82603455 C-23.43466647 117.48714059 -23.48404626 121.14830373 -23.53222656 124.80950928 C-23.58239321 128.54297988 -23.63805065 132.27636824 -23.69335938 136.00976562 C-23.80154395 143.3397812 -23.90051473 150.66984044 -24 158 C-39.18 158 -54.36 158 -70 158 C-71.94784971 144.71133645 -73.56819087 131.7367084 -74.375 118.375 C-74.43492126 117.38972321 -74.49484253 116.40444641 -74.55657959 115.38931274 C-75.8917191 90.50409244 -73.42933496 70.43720165 -56.70183182 51.11018753 C-49.84299899 43.49553071 -42.57958888 36.39284106 -35 29.5 C-33.74442921 28.35742359 -33.74442921 28.35742359 -32.46349335 27.19176483 C-21.97303536 17.71181807 -11.16302037 8.6755692 0 0 Z " fill="#FDFDFE" transform="translate(237,96)"/>
<path d="M0 0 C11.55 0 23.1 0 35 0 C35.33 20.46 35.66 40.92 36 62 C55.14 62.33 74.28 62.66 94 63 C77.79733041 81.90311452 54.77090638 93.81294824 30 97 C7.52863889 98.53399146 -10.91127476 95.87290048 -31 86 C-32.53140625 85.25556641 -32.53140625 85.25556641 -34.09375 84.49609375 C-43.99585825 79.39205762 -52.58541057 72.3051686 -60 64 C-60 63.67 -60 63.34 -60 63 C-40.53 62.67 -21.06 62.34 -1 62 C-0.67 41.54 -0.34 21.08 0 0 Z " fill="#FBFBFC" transform="translate(221,198)"/>
<path d="M0 0 C1.13501953 0.41862305 1.13501953 0.41862305 2.29296875 0.84570312 C28.28944071 10.57888142 28.28944071 10.57888142 32 18 C30.06833984 18.09087891 30.06833984 18.09087891 28.09765625 18.18359375 C26.41925841 18.26798247 24.74087364 18.3526313 23.0625 18.4375 C22.21236328 18.47681641 21.36222656 18.51613281 20.48632812 18.55664062 C19.67744141 18.59853516 18.86855469 18.64042969 18.03515625 18.68359375 C16.91185913 18.73858032 16.91185913 18.73858032 15.76586914 18.79467773 C13.97538674 18.81771063 13.97538674 18.81771063 13 20 C12.84417697 21.34015221 12.74955858 22.68758903 12.68359375 24.03515625 C12.64169922 24.84404297 12.59980469 25.65292969 12.55664062 26.48632812 C12.51732422 27.33646484 12.47800781 28.18660156 12.4375 29.0625 C12.37272461 30.34350586 12.37272461 30.34350586 12.30664062 31.65039062 C12.20023298 33.76672037 12.09958269 35.88333813 12 38 C7.06896969 33.86889413 2.44559968 29.57010271 -2.0703125 24.9921875 C-2.71443085 24.34428253 -3.35854919 23.69637756 -4.02218628 23.02883911 C-6.05892759 20.97999364 -8.09236935 18.92792313 -10.125 16.875 C-12.81217618 14.16113632 -15.50271004 11.4506663 -18.1953125 8.7421875 C-18.80376007 8.12544159 -19.41220764 7.50869568 -20.03909302 6.8732605 C-24.70511124 2.05375894 -24.70511124 2.05375894 -30 -2 C-34.18443428 -1.68260428 -36.16492279 -0.3375397 -39.09394836 2.57928467 C-39.87492386 3.34753571 -40.65589935 4.11578674 -41.46054077 4.90731812 C-42.30283234 5.75613556 -43.1451239 6.604953 -44.01293945 7.47949219 C-44.91099808 8.36893524 -45.8090567 9.2583783 -46.73432922 10.17477417 C-49.19388251 12.61183645 -51.64056085 15.06145042 -54.08444619 17.51421261 C-56.12599928 19.56087658 -58.17372455 21.60130768 -60.22147435 23.64176869 C-65.05133609 28.4546332 -69.8708384 33.27769886 -74.68383789 38.10742188 C-79.65033535 43.09085234 -84.63301158 48.0576657 -89.62409812 53.01645923 C-93.90928063 57.27496257 -98.18470407 61.54308839 -102.4523198 65.81919599 C-105.00109893 68.37290776 -107.55333129 70.92290235 -110.11480141 73.46389008 C-112.96885353 76.29620788 -115.80224269 79.14835452 -118.6340332 82.00292969 C-119.91265228 83.26401047 -119.91265228 83.26401047 -121.21710205 84.55056763 C-122.36741661 85.71986313 -122.36741661 85.71986313 -123.54096985 86.91278076 C-124.21291539 87.58531261 -124.88486094 88.25784447 -125.57716846 88.95075607 C-127.32777812 91.47208492 -127.28955088 92.99378821 -127 96 C-124.29799579 96.58939897 -124.29799579 96.58939897 -121 96 C-117.78537467 93.51062551 -114.8293152 90.65863041 -113 87 C-112.34 87 -111.68 87 -111 87 C-111 114.39 -111 141.78 -111 170 C-130.10351442 150.89648558 -137.39491538 125.29875482 -137.4375 98.875 C-137.39501267 71.03871514 -126.88944539 46.97679519 -107.78515625 26.69140625 C-80.27137804 0.10375802 -37.08811824 -13.98662086 0 0 Z " fill="#FBFCFD" transform="translate(270,89)"/>
<path d="M0 0 C2 0 2 0 3.4453125 1.3984375 C5.3078765 3.59019886 7.16218154 5.78741071 9 8 C9.65742188 8.77085938 10.31484375 9.54171875 10.9921875 10.3359375 C30.63938298 33.95844102 36.44921607 62.29324322 33.7890625 92.38623047 C31.6393422 110.50006687 22.54220356 131.58529532 10 145 C9.67 145 9.34 145 9 145 C9 117.61 9 90.22 9 62 C16 68 16 68 18.125 70.4375 C18.74375 70.953125 19.3625 71.46875 20 72 C22.70705512 71.85974801 22.70705512 71.85974801 25 71 C24.74248211 67.5301456 24.30230787 66.27459074 21.68334961 63.89575195 C20.68311768 63.18378662 19.68288574 62.47182129 18.65234375 61.73828125 C0.70494592 47.85305515 0.70494592 47.85305515 -1.13232422 36.76318359 C-2.40594741 24.56774007 -1.33184204 12.15049737 0 0 Z " fill="#F9FAFB" transform="translate(309,113)"/>
</svg>
